<?xml version="1.0" encoding="UTF-8"?>

<!DOCTYPE svg PUBLIC "-//W3C//DTD SVG 1.1 Tiny//EN"
"http://www.w3.org/Graphics/SVG/1.1/DTD/svg11-tiny.dtd">

<svg version="1.1" baseProfile="basic" xmlns="http://www.w3.org/2000/svg"
xmlns:xlink="http://www.w3.org/1999/xlink" width="1000" height="500"
class="global">
<g transform="translate(0,500) scale(1,-1)">

	<style type="text/css"><![CDATA[
	.global {
		fill: none;
		font-family: arial, sans-serif;
	}
	.svg-border {
		stroke: grey;
		fill: white;/*the background color for the whole svg*/
		stroke-width: 1;
	}
	.axis {
		stroke: grey;
		stroke-width: 1;
		shape-rendering: crispEdges;
	}
	.graph-area {
		fill: #e6e6e6;/*light grey*/
	}
	.dashline {
		stroke: black;
		stroke-width: 1;
		stroke-dasharray: 10 10;
		shape-rendering: crispEdges;
		stroke: grey;
	}
	.caption {
		text-anchor: middle;
		font-weight: bolder;
		font-size: 18px;
		fill: #404040;/*dark gray*/
	}
	.heading {
		stroke: red;
		stroke-width: 1;
	}
	.horizontal-dashline-label {
		fill: black;
		font-size: 12px;
		text-anchor: end;
		transform: scale(1,-1)
	}
	.vertical-dashline-label {
		fill: black;
		font-size: 12px;
		text-anchor: middle;
		transform: scale(1,-1)
	}
	.data-display {
		fill: blue;
		fill-opacity: 0.2;
		stroke: darkblue;
		stroke-width: 3;
		shape-rendering: auto;
	}
	.outlin {/*rename to hide outlines*/
		stroke: black;
		fill: none;
		stroke-width: 1;
		shape-rendering: crispEdges;
	}
	]]></style>
	<rect class="svg-border" x="0" y="0" width="1000" height="500" rx="5"/>
	<g transform="scale(1,-1) translate(400,-430)">
		<g id="btc-heading" transform="translate(0,0)">
			<rect class="heading" x="0" y="0" width="60" height="30" rx="5"
			transform="scale(1,-1)"/>
			<text x="30" y="-9" class="caption">BTC</text>
		</g>
		<g id="satoshis-heading" transform="translate(60,0)">
			<rect class="heading" x="0" y="0" width="100" height="30" rx="5"
			transform="scale(1,-1)"/>
			<text x="50" y="-9" class="caption">Satoshis</text>
		</g>
		<g id="local-currency-heading" transform="translate(160,0)">
			<rect class="heading" x="0" y="0" width="60" height="30" rx="5"
			transform="scale(1,-1)"/>
			<text x="30" y="-9" class="caption">AUD</text>
		</g>
	</g>

	<animateTransform id="btc-heading-animate" xlink:href="#btc-heading"
	attributeName="transform" attributeType="XML" type="translate" dur="0.2s"
	begin="indefinite" fill="freeze" restart="whenNotActive"/>

	<animateTransform id="satoshis-heading-animate" fill="freeze" dur="0.2s" 
	xlink:href="#satoshis-heading" attributeName="transform" attributeType="XML"
	type="translate" begin="indefinite" restart="whenNotActive"/>

	<animateTransform id="local-currency-heading-animate" attributeType="XML"
	fill="freeze" xlink:href="#local-currency-heading" type="translate" 
	attributeName="transform" dur="0.2s" begin="indefinite"
	restart="whenNotActive"/>

	<g id="axes-area" transform="translate(40,40)">
		<g transform="rotate(-90,0,0) scale(-1,1) translate(60,0)">
			<rect class="outline" x="0" y="0" width="300" height="60"/>
			<text id="y-caption" x="170" y="15" class="caption"/>
		</g>
		<g transform="translate(60,60) scale(1,-1)">
			<rect class="outline" x="0" y="0" width="800" height="60"/>
			<text id="x-caption" x="420" y="55" class="caption"/>
		</g>
		<g id="graph-area" transform="translate(60,60)">
			<rect class="graph-area" x="0" y="0" width="800" height="300"/>
			<circle id="tttarget" cx="50" cy="50" r="4" stroke="black"
			stroke-width="1" fill="none"/>
			<line class="axis" x1="0" y1="0" x2="0" y2="300"/>
			<line class="axis" x1="0" y1="0" x2="800" y2="0"/>
			<g id="horizontal-dashline0" transform="translate(0,0)">
				<text class="horizontal-dashline-label" x="-15" y="5">0</text>
				<line class="dashline" y1="0" y2="0" x1="-10" x2="800"/>
			</g>
			<g id="vertical-dashline0" transform="translate(0,5)">
				<text class="vertical-dashline-label" x="0" y="30">0</text>
				<line class="dashline" y1="-15" y2="300" x1="0" x2="0"/>
			</g>
			<polygon id="poly0" class="data-display"/>
		</g>
	</g>
</g>
</svg>
